<svg xmlns="http://www.w3.org/2000/svg" width="163" height="32" fill="none" viewBox="0 0 163 32"><path fill="#73D997" d="M4.58288 11.1045C4.86346 10.823 5.31836 10.823 5.59894 11.1045L9.97138 15.4904C10.252 15.7718 10.252 16.2282 9.97139 16.5096L5.59894 20.8955C5.31836 21.177 4.86346 21.177 4.58288 20.8955L0.210434 16.5096C-0.0701446 16.2282 -0.0701449 15.7718 0.210434 15.4904L4.58288 11.1045Z"/><path fill="#73D997" fill-rule="evenodd" d="M20.7107 11.1972C20.2692 10.9492 19.7308 10.9492 19.2893 11.1972L15.9966 13.0468C15.5373 13.3048 15.2528 13.7917 15.2528 14.3198V17.6802C15.2528 18.2083 15.5373 18.6952 15.9966 18.9532L19.2893 20.8028C19.7308 21.0508 20.2692 21.0508 20.7107 20.8028L24.0034 18.9532C24.4627 18.6952 24.7472 18.2083 24.7472 17.6802V14.3198C24.7472 13.7917 24.4627 13.3048 24.0034 13.0468L20.7107 11.1972ZM29.0909 11.7486C29.0909 11.2205 28.8064 10.7336 28.3471 10.4756L20.7107 6.18602C20.2692 5.93799 19.7308 5.93799 19.2893 6.18602L11.6529 10.4756C11.1936 10.7336 10.9091 11.2205 10.9091 11.7486V20.2514C10.9091 20.7795 11.1936 21.2664 11.6529 21.5244L19.2893 25.814C19.7308 26.062 20.2692 26.062 20.7107 25.814L28.3471 21.5244C28.8064 21.2664 29.0909 20.7795 29.0909 20.2514V11.7486Z" clip-rule="evenodd"/><path fill="#73D997" d="M34.4011 11.1045C34.6816 10.823 35.1365 10.823 35.4171 11.1045L39.7896 15.4904C40.0701 15.7718 40.0701 16.2282 39.7896 16.5096L35.4171 20.8955C35.1365 21.177 34.6816 21.177 34.4011 20.8955L30.0286 16.5096C29.748 16.2282 29.748 15.7718 30.0286 15.4904L34.4011 11.1045Z"/><path fill="#fff" d="M149.764 22.61C148.869 22.61 148.076 22.4223 147.386 22.047C146.708 21.6596 146.175 21.1209 145.788 20.4309C145.412 19.7287 145.225 18.9055 145.225 17.9612V17.7433C145.225 16.799 145.412 15.9819 145.788 15.2918C146.163 14.5896 146.689 14.0509 147.367 13.6756C148.045 13.2882 148.832 13.0945 149.728 13.0945C150.612 13.0945 151.381 13.2943 152.034 13.6938C152.688 14.0812 153.196 14.626 153.56 15.3281C153.923 16.0182 154.104 16.8232 154.104 17.7433V18.5241H147.549C147.573 19.1415 147.803 19.644 148.239 20.0313C148.675 20.4187 149.208 20.6124 149.837 20.6124C150.479 20.6124 150.951 20.4732 151.253 20.1948C151.556 19.9163 151.786 19.6076 151.944 19.2687L153.814 20.2493C153.644 20.564 153.396 20.909 153.069 21.2843C152.755 21.6475 152.331 21.9623 151.798 22.2286C151.266 22.4828 150.588 22.61 149.764 22.61ZM147.567 16.8172H151.78C151.732 16.2966 151.52 15.879 151.145 15.5642C150.781 15.2494 150.303 15.0921 149.71 15.0921C149.093 15.0921 148.602 15.2494 148.239 15.5642C147.876 15.879 147.652 16.2966 147.567 16.8172Z"/><path fill="#fff" d="M139.252 22.61C138.38 22.61 137.587 22.4284 136.873 22.0652C136.171 21.702 135.614 21.1754 135.202 20.4853C134.791 19.7953 134.585 18.96 134.585 17.9794V17.7251C134.585 16.7445 134.791 15.9092 135.202 15.2192C135.614 14.5291 136.171 14.0025 136.873 13.6393C137.587 13.2761 138.38 13.0945 139.252 13.0945C140.111 13.0945 140.85 13.2459 141.467 13.5485C142.085 13.8512 142.581 14.2688 142.956 14.8015C143.344 15.3221 143.598 15.9153 143.719 16.5811L141.504 17.0532C141.455 16.6901 141.346 16.3632 141.177 16.0726C141.007 15.7821 140.765 15.5521 140.45 15.3826C140.148 15.2131 139.766 15.1284 139.306 15.1284C138.846 15.1284 138.429 15.2313 138.053 15.4371C137.69 15.6308 137.4 15.9274 137.182 16.3269C136.976 16.7143 136.873 17.1925 136.873 17.7615V17.943C136.873 18.512 136.976 18.9963 137.182 19.3958C137.4 19.7832 137.69 20.0798 138.053 20.2856C138.429 20.4793 138.846 20.5761 139.306 20.5761C139.996 20.5761 140.517 20.4006 140.868 20.0495C141.231 19.6863 141.461 19.2142 141.558 18.6331L143.774 19.1597C143.616 19.8013 143.344 20.3885 142.956 20.9211C142.581 21.4417 142.085 21.8533 141.467 22.156C140.85 22.4586 140.111 22.61 139.252 22.61Z"/><path fill="#fff" d="M130.197 22.3557V13.3488H132.485V22.3557H130.197ZM131.341 12.2955C130.929 12.2955 130.578 12.1624 130.288 11.896C130.009 11.6297 129.87 11.2786 129.87 10.8428C129.87 10.407 130.009 10.0559 130.288 9.78958C130.578 9.52324 130.929 9.39008 131.341 9.39008C131.765 9.39008 132.116 9.52324 132.394 9.78958C132.673 10.0559 132.812 10.407 132.812 10.8428C132.812 11.2786 132.673 11.6297 132.394 11.896C132.116 12.1624 131.765 12.2955 131.341 12.2955Z"/><path fill="#fff" d="M122.137 22.3557L119.268 13.3488H121.701L123.789 20.6851H124.116L126.204 13.3488H128.638L125.769 22.3557H122.137Z"/><path fill="#fff" d="M113.049 22.3557V13.3488H115.301V14.3657H115.627C115.761 14.0025 115.979 13.7362 116.281 13.5667C116.596 13.3972 116.959 13.3124 117.371 13.3124H118.46V15.3463H117.334C116.753 15.3463 116.275 15.5036 115.9 15.8184C115.525 16.1211 115.337 16.5932 115.337 17.2348V22.3557H113.049Z"/><path fill="#fff" d="M106.672 22.61C105.776 22.61 104.983 22.4223 104.293 22.047C103.615 21.6596 103.082 21.1209 102.695 20.4309C102.319 19.7287 102.132 18.9055 102.132 17.9612V17.7433C102.132 16.799 102.319 15.9819 102.695 15.2918C103.07 14.5896 103.597 14.0509 104.275 13.6756C104.953 13.2882 105.739 13.0945 106.635 13.0945C107.519 13.0945 108.288 13.2943 108.942 13.6938C109.595 14.0812 110.104 14.626 110.467 15.3281C110.83 16.0182 111.012 16.8232 111.012 17.7433V18.5241H104.456C104.48 19.1415 104.71 19.644 105.146 20.0313C105.582 20.4187 106.115 20.6124 106.744 20.6124C107.386 20.6124 107.858 20.4732 108.161 20.1948C108.463 19.9163 108.693 19.6076 108.851 19.2687L110.721 20.2493C110.552 20.564 110.303 20.909 109.977 21.2843C109.662 21.6475 109.238 21.9623 108.705 22.2286C108.173 22.4828 107.495 22.61 106.672 22.61ZM104.474 16.8172H108.687C108.639 16.2966 108.427 15.879 108.052 15.5642C107.689 15.2494 107.21 15.0921 106.617 15.0921C106 15.0921 105.509 15.2494 105.146 15.5642C104.783 15.879 104.559 16.2966 104.474 16.8172Z"/><path fill="#fff" d="M96.7854 22.61C95.6111 22.61 94.6487 22.3557 93.8981 21.8473C93.1475 21.3388 92.6935 20.6124 92.5361 19.6682L94.6426 19.1234C94.7273 19.5471 94.8666 19.88 95.0603 20.1221C95.2661 20.3643 95.5142 20.5398 95.8048 20.6488C96.1074 20.7456 96.4343 20.794 96.7854 20.794C97.3181 20.794 97.7115 20.7032 97.9657 20.5216C98.22 20.3279 98.3471 20.0919 98.3471 19.8134C98.3471 19.535 98.226 19.3231 97.9839 19.1779C97.7418 19.0205 97.3544 18.8934 96.8217 18.7965L96.3132 18.7057C95.6837 18.5847 95.1087 18.4212 94.5881 18.2154C94.0676 17.9975 93.6499 17.7009 93.3351 17.3256C93.0204 16.9503 92.863 16.4661 92.863 15.8729C92.863 14.977 93.1899 14.293 93.8436 13.8209C94.4973 13.3367 95.3569 13.0945 96.4222 13.0945C97.427 13.0945 98.2623 13.3185 98.9282 13.7664C99.594 14.2144 100.03 14.8015 100.236 15.5279L98.111 16.1816C98.0142 15.7216 97.8144 15.3947 97.5117 15.201C97.2212 15.0073 96.858 14.9105 96.4222 14.9105C95.9864 14.9105 95.6535 14.9892 95.4234 15.1465C95.1934 15.2918 95.0784 15.4976 95.0784 15.7639C95.0784 16.0545 95.1995 16.2724 95.4416 16.4177C95.6837 16.5508 96.0106 16.6537 96.4222 16.7264L96.9307 16.8172C97.6086 16.9382 98.22 17.1017 98.7647 17.3075C99.3216 17.5012 99.7574 17.7857 100.072 18.161C100.399 18.5241 100.562 19.0205 100.562 19.65C100.562 20.5943 100.217 21.3267 99.5274 21.8473C98.8495 22.3557 97.9355 22.61 96.7854 22.61Z"/><path fill="#fff" d="M86.2116 22.61C85.3158 22.61 84.5107 22.4284 83.7964 22.0652C83.0822 21.702 82.5193 21.1754 82.1076 20.4853C81.696 19.7953 81.4902 18.966 81.4902 17.9975V17.707C81.4902 16.7385 81.696 15.9092 82.1076 15.2192C82.5193 14.5291 83.0822 14.0025 83.7964 13.6393C84.5107 13.2761 85.3158 13.0945 86.2116 13.0945C87.1075 13.0945 87.9125 13.2761 88.6268 13.6393C89.341 14.0025 89.904 14.5291 90.3156 15.2192C90.7272 15.9092 90.933 16.7385 90.933 17.707V17.9975C90.933 18.966 90.7272 19.7953 90.3156 20.4853C89.904 21.1754 89.341 21.702 88.6268 22.0652C87.9125 22.4284 87.1075 22.61 86.2116 22.61ZM86.2116 20.5761C86.9138 20.5761 87.4949 20.3522 87.9549 19.9042C88.4149 19.4442 88.6449 18.7905 88.6449 17.943V17.7615C88.6449 16.914 88.4149 16.2663 87.9549 15.8184C87.507 15.3584 86.9259 15.1284 86.2116 15.1284C85.5095 15.1284 84.9284 15.3584 84.4683 15.8184C84.0083 16.2663 83.7783 16.914 83.7783 17.7615V17.943C83.7783 18.7905 84.0083 19.4442 84.4683 19.9042C84.9284 20.3522 85.5095 20.5761 86.2116 20.5761Z"/><path fill="#fff" d="M70.7363 22.3557V13.3488H72.9881V14.5291H73.3149C73.4602 14.2144 73.7326 13.9178 74.1321 13.6393C74.5316 13.3488 75.1369 13.2035 75.948 13.2035C76.6502 13.2035 77.2615 13.3669 77.7821 13.6938C78.3148 14.0085 78.7264 14.4504 79.0169 15.0194C79.3075 15.5763 79.4527 16.23 79.4527 16.9806V22.3557H77.1647V17.1622C77.1647 16.4842 76.9952 15.9758 76.6562 15.6368C76.3294 15.2978 75.8572 15.1284 75.2398 15.1284C74.5376 15.1284 73.9929 15.3644 73.6055 15.8366C73.2181 16.2966 73.0244 16.9443 73.0244 17.7796V22.3557H70.7363Z"/><path fill="#fff" d="M63.0348 22.61C62.3932 22.61 61.8182 22.501 61.3097 22.2831C60.8013 22.0531 60.3957 21.7262 60.093 21.3025C59.8025 20.8667 59.6572 20.3401 59.6572 19.7226C59.6572 19.1052 59.8025 18.5907 60.093 18.1791C60.3957 17.7554 60.8073 17.4406 61.3279 17.2348C61.8605 17.0169 62.4658 16.908 63.1438 16.908H65.6134V16.3995C65.6134 15.9758 65.4803 15.6308 65.2139 15.3644C64.9476 15.086 64.5239 14.9468 63.9428 14.9468C63.3738 14.9468 62.9501 15.0799 62.6716 15.3463C62.3932 15.6005 62.2116 15.9334 62.1269 16.345L60.0204 15.6368C60.1657 15.1768 60.3957 14.7591 60.7105 14.3838C61.0373 13.9964 61.4671 13.6877 61.9998 13.4577C62.5445 13.2156 63.2043 13.0945 63.9791 13.0945C65.1655 13.0945 66.1037 13.3911 66.7938 13.9843C67.4838 14.5775 67.8289 15.4371 67.8289 16.5629V19.9224C67.8289 20.2856 67.9983 20.4672 68.3373 20.4672H69.0637V22.3557H67.5383C67.0904 22.3557 66.7211 22.2468 66.4306 22.0289C66.1401 21.8109 65.9948 21.5204 65.9948 21.1572V21.1391H65.6498C65.6013 21.2843 65.4924 21.478 65.3229 21.7202C65.1534 21.9502 64.8871 22.156 64.5239 22.3376C64.1607 22.5192 63.6644 22.61 63.0348 22.61ZM63.4343 20.7577C64.076 20.7577 64.5965 20.5822 64.996 20.2311C65.4076 19.8679 65.6134 19.3897 65.6134 18.7965V18.6149H63.3072C62.8835 18.6149 62.5506 18.7057 62.3085 18.8873C62.0663 19.0689 61.9453 19.3231 61.9453 19.65C61.9453 19.9769 62.0724 20.2432 62.3266 20.449C62.5809 20.6548 62.9501 20.7577 63.4343 20.7577Z"/><path fill="#fff" d="M48 22.3557V9.64429H52.558L55.0821 20.7214H55.4089V9.64429H57.7696V22.3557H53.2117L50.6876 11.2786H50.3607V22.3557H48Z"/></svg>