<svg xmlns="http://www.w3.org/2000/svg" width="163" height="32" fill="none" viewBox="0 0 163 32"><path fill="#39C068" d="M4.58288 11.1045C4.86346 10.823 5.31836 10.823 5.59894 11.1045L9.97138 15.4904C10.252 15.7718 10.252 16.2282 9.97139 16.5096L5.59894 20.8955C5.31836 21.177 4.86346 21.177 4.58288 20.8955L0.210434 16.5096C-0.0701446 16.2282 -0.0701449 15.7718 0.210434 15.4904L4.58288 11.1045Z"/><path fill="#39C068" fill-rule="evenodd" d="M20.7107 11.1972C20.2692 10.9492 19.7308 10.9492 19.2893 11.1972L15.9966 13.0468C15.5373 13.3048 15.2528 13.7917 15.2528 14.3198V17.6802C15.2528 18.2083 15.5373 18.6952 15.9966 18.9532L19.2893 20.8028C19.7308 21.0508 20.2692 21.0508 20.7107 20.8028L24.0034 18.9532C24.4627 18.6952 24.7472 18.2083 24.7472 17.6802V14.3198C24.7472 13.7917 24.4627 13.3048 24.0034 13.0468L20.7107 11.1972ZM29.0909 11.7486C29.0909 11.2205 28.8064 10.7336 28.3471 10.4756L20.7107 6.18602C20.2692 5.93799 19.7308 5.93799 19.2893 6.18602L11.6529 10.4756C11.1936 10.7336 10.9091 11.2205 10.9091 11.7486V20.2514C10.9091 20.7795 11.1936 21.2664 11.6529 21.5244L19.2893 25.814C19.7308 26.062 20.2692 26.062 20.7107 25.814L28.3471 21.5244C28.8064 21.2664 29.0909 20.7795 29.0909 20.2514V11.7486Z" clip-rule="evenodd"/><path fill="#39C068" d="M34.4011 11.1045C34.6816 10.823 35.1365 10.823 35.4171 11.1045L39.7896 15.4904C40.0701 15.7718 40.0701 16.2282 39.7896 16.5096L35.4171 20.8955C35.1365 21.177 34.6816 21.177 34.4011 20.8955L30.0286 16.5096C29.748 16.2282 29.748 15.7718 30.0286 15.4904L34.4011 11.1045Z"/><mask id="path-2-outside-1_88_185" width="108" height="15" x="47" y="8.39" fill="#000" maskUnits="userSpaceOnUse"><rect width="108" height="15" x="47" y="8.39" fill="#fff"/><path d="M48 22.3557V9.6443H52.558L55.0821 20.7214H55.4089V9.6443H57.7696V22.3557H53.2117L50.6876 11.2786H50.3607V22.3557H48Z"/><path d="M63.0344 22.61C62.3928 22.61 61.8177 22.501 61.3093 22.2831C60.8008 22.0531 60.3952 21.7262 60.0926 21.3025C59.802 20.8667 59.6568 20.3401 59.6568 19.7226C59.6568 19.1052 59.802 18.5907 60.0926 18.1791C60.3952 17.7554 60.8068 17.4406 61.3274 17.2348C61.8601 17.0169 62.4654 16.908 63.1433 16.908H65.613V16.3995C65.613 15.9758 65.4798 15.6308 65.2135 15.3644C64.9471 15.086 64.5234 14.9468 63.9423 14.9468C63.3733 14.9468 62.9496 15.0799 62.6712 15.3463C62.3927 15.6005 62.2112 15.9334 62.1264 16.345L60.02 15.6368C60.1652 15.1768 60.3952 14.7591 60.71 14.3838C61.0369 13.9965 61.4666 13.6877 61.9993 13.4577C62.5441 13.2156 63.2039 13.0945 63.9787 13.0945C65.1651 13.0945 66.1033 13.3911 66.7933 13.9843C67.4834 14.5775 67.8284 15.4371 67.8284 16.5629V19.9224C67.8284 20.2856 67.9979 20.4672 68.3369 20.4672H69.0632V22.3557H67.5378C67.0899 22.3557 66.7207 22.2468 66.4301 22.0289C66.1396 21.8109 65.9943 21.5204 65.9943 21.1572V21.1391H65.6493C65.6009 21.2843 65.4919 21.478 65.3224 21.7202C65.1529 21.9502 64.8866 22.156 64.5234 22.3376C64.1602 22.5192 63.6639 22.61 63.0344 22.61ZM63.4339 20.7577C64.0755 20.7577 64.5961 20.5822 64.9956 20.2311C65.4072 19.8679 65.613 19.3897 65.613 18.7965V18.6149H63.3068C62.883 18.6149 62.5501 18.7057 62.308 18.8873C62.0659 19.0689 61.9448 19.3231 61.9448 19.65C61.9448 19.9769 62.0719 20.2432 62.3262 20.449C62.5804 20.6548 62.9496 20.7577 63.4339 20.7577Z"/><path d="M70.7361 22.3557V13.3488H72.9879V14.5291H73.3147C73.46 14.2144 73.7324 13.9178 74.1319 13.6393C74.5314 13.3488 75.1367 13.2035 75.9478 13.2035C76.65 13.2035 77.2613 13.3669 77.7819 13.6938C78.3146 14.0086 78.7262 14.4504 79.0167 15.0194C79.3073 15.5763 79.4525 16.23 79.4525 16.9806V22.3557H77.1645V17.1622C77.1645 16.4843 76.995 15.9758 76.656 15.6368C76.3292 15.2979 75.857 15.1284 75.2396 15.1284C74.5375 15.1284 73.9927 15.3644 73.6053 15.8366C73.2179 16.2966 73.0242 16.9443 73.0242 17.7796V22.3557H70.7361Z"/><path d="M86.2116 22.61C85.3157 22.61 84.5107 22.4284 83.7964 22.0652C83.0821 21.702 82.5192 21.1754 82.1076 20.4853C81.696 19.7953 81.4902 18.966 81.4902 17.9975V17.707C81.4902 16.7385 81.696 15.9092 82.1076 15.2192C82.5192 14.5291 83.0821 14.0025 83.7964 13.6393C84.5107 13.2761 85.3157 13.0945 86.2116 13.0945C87.1074 13.0945 87.9125 13.2761 88.6267 13.6393C89.341 14.0025 89.9039 14.5291 90.3155 15.2192C90.7272 15.9092 90.933 16.7385 90.933 17.707V17.9975C90.933 18.966 90.7272 19.7953 90.3155 20.4853C89.9039 21.1754 89.341 21.702 88.6267 22.0652C87.9125 22.4284 87.1074 22.61 86.2116 22.61ZM86.2116 20.5761C86.9137 20.5761 87.4948 20.3522 87.9549 19.9042C88.4149 19.4442 88.6449 18.7905 88.6449 17.943V17.7615C88.6449 16.914 88.4149 16.2663 87.9549 15.8184C87.5069 15.3584 86.9258 15.1284 86.2116 15.1284C85.5094 15.1284 84.9283 15.3584 84.4683 15.8184C84.0083 16.2663 83.7782 16.914 83.7782 17.7615V17.943C83.7782 18.7905 84.0083 19.4442 84.4683 19.9042C84.9283 20.3522 85.5094 20.5761 86.2116 20.5761Z"/><path d="M96.7857 22.61C95.6115 22.61 94.649 22.3557 93.8984 21.8473C93.1479 21.3388 92.6939 20.6124 92.5365 19.6682L94.643 19.1234C94.7277 19.5471 94.8669 19.88 95.0606 20.1221C95.2664 20.3643 95.5146 20.5398 95.8052 20.6488C96.1078 20.7456 96.4347 20.794 96.7857 20.794C97.3184 20.794 97.7119 20.7032 97.9661 20.5216C98.2203 20.3279 98.3474 20.0919 98.3474 19.8134C98.3474 19.535 98.2264 19.3231 97.9843 19.1779C97.7421 19.0205 97.3547 18.8934 96.8221 18.7965L96.3136 18.7057C95.6841 18.5847 95.109 18.4212 94.5885 18.2154C94.0679 17.9975 93.6503 17.7009 93.3355 17.3256C93.0207 16.9503 92.8634 16.4661 92.8634 15.8729C92.8634 14.977 93.1902 14.2931 93.844 13.8209C94.4977 13.3367 95.3572 13.0945 96.4226 13.0945C97.4274 13.0945 98.2627 13.3185 98.9285 13.7664C99.5944 14.2144 100.03 14.8015 100.236 15.5279L98.1114 16.1816C98.0145 15.7216 97.8148 15.3947 97.5121 15.201C97.2216 15.0073 96.8584 14.9105 96.4226 14.9105C95.9867 14.9105 95.6538 14.9892 95.4238 15.1465C95.1938 15.2918 95.0788 15.4976 95.0788 15.7639C95.0788 16.0545 95.1998 16.2724 95.442 16.4177C95.6841 16.5508 96.011 16.6537 96.4226 16.7264L96.931 16.8172C97.609 16.9382 98.2203 17.1017 98.7651 17.3075C99.322 17.5012 99.7578 17.7857 100.073 18.161C100.399 18.5241 100.563 19.0205 100.563 19.65C100.563 20.5943 100.218 21.3267 99.5278 21.8473C98.8498 22.3557 97.9358 22.61 96.7857 22.61Z"/><path d="M106.672 22.61C105.776 22.61 104.983 22.4223 104.293 22.047C103.615 21.6596 103.082 21.1209 102.695 20.4309C102.32 19.7287 102.132 18.9055 102.132 17.9612V17.7433C102.132 16.799 102.32 15.9819 102.695 15.2918C103.07 14.5897 103.597 14.0509 104.275 13.6756C104.953 13.2882 105.74 13.0945 106.636 13.0945C107.519 13.0945 108.288 13.2943 108.942 13.6938C109.595 14.0812 110.104 14.626 110.467 15.3281C110.83 16.0182 111.012 16.8232 111.012 17.7433V18.5241H104.456C104.481 19.1416 104.711 19.644 105.146 20.0314C105.582 20.4187 106.115 20.6124 106.744 20.6124C107.386 20.6124 107.858 20.4732 108.161 20.1948C108.464 19.9163 108.694 19.6076 108.851 19.2687L110.721 20.2493C110.552 20.564 110.304 20.909 109.977 21.2843C109.662 21.6475 109.238 21.9623 108.706 22.2286C108.173 22.4828 107.495 22.61 106.672 22.61ZM104.475 16.8172H108.688C108.639 16.2966 108.427 15.879 108.052 15.5642C107.689 15.2494 107.211 15.0921 106.617 15.0921C106 15.0921 105.51 15.2494 105.146 15.5642C104.783 15.879 104.559 16.2966 104.475 16.8172Z"/><path d="M113.048 22.3557V13.3488H115.3V14.3657H115.627C115.76 14.0025 115.978 13.7362 116.281 13.5667C116.596 13.3972 116.959 13.3125 117.37 13.3125H118.46V15.3463H117.334C116.753 15.3463 116.275 15.5037 115.899 15.8184C115.524 16.1211 115.336 16.5932 115.336 17.2348V22.3557H113.048Z"/><path d="M122.137 22.3557L119.268 13.3488H121.701L123.789 20.6851H124.116L126.204 13.3488H128.638L125.769 22.3557H122.137Z"/><path d="M130.197 22.3557V13.3488H132.485V22.3557H130.197ZM131.341 12.2955C130.929 12.2955 130.578 12.1624 130.288 11.896C130.009 11.6297 129.87 11.2786 129.87 10.8428C129.87 10.407 130.009 10.0559 130.288 9.78958C130.578 9.52324 130.929 9.39008 131.341 9.39008C131.765 9.39008 132.116 9.52324 132.394 9.78958C132.672 10.0559 132.812 10.407 132.812 10.8428C132.812 11.2786 132.672 11.6297 132.394 11.896C132.116 12.1624 131.765 12.2955 131.341 12.2955Z"/><path d="M139.251 22.61C138.38 22.61 137.587 22.4284 136.873 22.0652C136.17 21.702 135.614 21.1754 135.202 20.4853C134.79 19.7953 134.584 18.96 134.584 17.9794V17.7251C134.584 16.7445 134.79 15.9092 135.202 15.2192C135.614 14.5291 136.17 14.0025 136.873 13.6393C137.587 13.2761 138.38 13.0945 139.251 13.0945C140.111 13.0945 140.849 13.2459 141.467 13.5485C142.084 13.8512 142.581 14.2688 142.956 14.8015C143.343 15.3221 143.597 15.9153 143.719 16.5811L141.503 17.0532C141.455 16.6901 141.346 16.3632 141.176 16.0727C141.007 15.7821 140.765 15.5521 140.45 15.3826C140.147 15.2131 139.766 15.1284 139.306 15.1284C138.846 15.1284 138.428 15.2313 138.053 15.4371C137.69 15.6308 137.399 15.9274 137.181 16.3269C136.975 16.7143 136.873 17.1925 136.873 17.7615V17.943C136.873 18.512 136.975 18.9963 137.181 19.3958C137.399 19.7832 137.69 20.0798 138.053 20.2856C138.428 20.4793 138.846 20.5761 139.306 20.5761C139.996 20.5761 140.516 20.4006 140.868 20.0495C141.231 19.6863 141.461 19.2142 141.558 18.6331L143.773 19.1597C143.616 19.8013 143.343 20.3885 142.956 20.9211C142.581 21.4417 142.084 21.8533 141.467 22.156C140.849 22.4586 140.111 22.61 139.251 22.61Z"/><path d="M149.764 22.61C148.869 22.61 148.076 22.4223 147.386 22.047C146.708 21.6596 146.175 21.1209 145.788 20.4309C145.412 19.7287 145.225 18.9055 145.225 17.9612V17.7433C145.225 16.799 145.412 15.9819 145.788 15.2918C146.163 14.5897 146.689 14.0509 147.367 13.6756C148.045 13.2882 148.832 13.0945 149.728 13.0945C150.612 13.0945 151.381 13.2943 152.034 13.6938C152.688 14.0812 153.197 14.626 153.56 15.3281C153.923 16.0182 154.104 16.8232 154.104 17.7433V18.5241H147.549C147.573 19.1416 147.803 19.644 148.239 20.0314C148.675 20.4187 149.208 20.6124 149.837 20.6124C150.479 20.6124 150.951 20.4732 151.253 20.1948C151.556 19.9163 151.786 19.6076 151.944 19.2687L153.814 20.2493C153.644 20.564 153.396 20.909 153.069 21.2843C152.755 21.6475 152.331 21.9623 151.798 22.2286C151.266 22.4828 150.588 22.61 149.764 22.61ZM147.567 16.8172H151.78C151.732 16.2966 151.52 15.879 151.145 15.5642C150.781 15.2494 150.303 15.0921 149.71 15.0921C149.093 15.0921 148.602 15.2494 148.239 15.5642C147.876 15.879 147.652 16.2966 147.567 16.8172Z"/></mask><path fill="#000" d="M48 22.3557V9.6443H52.558L55.0821 20.7214H55.4089V9.6443H57.7696V22.3557H53.2117L50.6876 11.2786H50.3607V22.3557H48Z"/><path fill="#000" d="M63.0344 22.61C62.3928 22.61 61.8177 22.501 61.3093 22.2831C60.8008 22.0531 60.3952 21.7262 60.0926 21.3025C59.802 20.8667 59.6568 20.3401 59.6568 19.7226C59.6568 19.1052 59.802 18.5907 60.0926 18.1791C60.3952 17.7554 60.8068 17.4406 61.3274 17.2348C61.8601 17.0169 62.4654 16.908 63.1433 16.908H65.613V16.3995C65.613 15.9758 65.4798 15.6308 65.2135 15.3644C64.9471 15.086 64.5234 14.9468 63.9423 14.9468C63.3733 14.9468 62.9496 15.0799 62.6712 15.3463C62.3927 15.6005 62.2112 15.9334 62.1264 16.345L60.02 15.6368C60.1652 15.1768 60.3952 14.7591 60.71 14.3838C61.0369 13.9965 61.4666 13.6877 61.9993 13.4577C62.5441 13.2156 63.2039 13.0945 63.9787 13.0945C65.1651 13.0945 66.1033 13.3911 66.7933 13.9843C67.4834 14.5775 67.8284 15.4371 67.8284 16.5629V19.9224C67.8284 20.2856 67.9979 20.4672 68.3369 20.4672H69.0632V22.3557H67.5378C67.0899 22.3557 66.7207 22.2468 66.4301 22.0289C66.1396 21.8109 65.9943 21.5204 65.9943 21.1572V21.1391H65.6493C65.6009 21.2843 65.4919 21.478 65.3224 21.7202C65.1529 21.9502 64.8866 22.156 64.5234 22.3376C64.1602 22.5192 63.6639 22.61 63.0344 22.61ZM63.4339 20.7577C64.0755 20.7577 64.5961 20.5822 64.9956 20.2311C65.4072 19.8679 65.613 19.3897 65.613 18.7965V18.6149H63.3068C62.883 18.6149 62.5501 18.7057 62.308 18.8873C62.0659 19.0689 61.9448 19.3231 61.9448 19.65C61.9448 19.9769 62.0719 20.2432 62.3262 20.449C62.5804 20.6548 62.9496 20.7577 63.4339 20.7577Z"/><path fill="#000" d="M70.7361 22.3557V13.3488H72.9879V14.5291H73.3147C73.46 14.2144 73.7324 13.9178 74.1319 13.6393C74.5314 13.3488 75.1367 13.2035 75.9478 13.2035C76.65 13.2035 77.2613 13.3669 77.7819 13.6938C78.3146 14.0086 78.7262 14.4504 79.0167 15.0194C79.3073 15.5763 79.4525 16.23 79.4525 16.9806V22.3557H77.1645V17.1622C77.1645 16.4843 76.995 15.9758 76.656 15.6368C76.3292 15.2979 75.857 15.1284 75.2396 15.1284C74.5375 15.1284 73.9927 15.3644 73.6053 15.8366C73.2179 16.2966 73.0242 16.9443 73.0242 17.7796V22.3557H70.7361Z"/><path fill="#000" d="M86.2116 22.61C85.3157 22.61 84.5107 22.4284 83.7964 22.0652C83.0821 21.702 82.5192 21.1754 82.1076 20.4853C81.696 19.7953 81.4902 18.966 81.4902 17.9975V17.707C81.4902 16.7385 81.696 15.9092 82.1076 15.2192C82.5192 14.5291 83.0821 14.0025 83.7964 13.6393C84.5107 13.2761 85.3157 13.0945 86.2116 13.0945C87.1074 13.0945 87.9125 13.2761 88.6267 13.6393C89.341 14.0025 89.9039 14.5291 90.3155 15.2192C90.7272 15.9092 90.933 16.7385 90.933 17.707V17.9975C90.933 18.966 90.7272 19.7953 90.3155 20.4853C89.9039 21.1754 89.341 21.702 88.6267 22.0652C87.9125 22.4284 87.1074 22.61 86.2116 22.61ZM86.2116 20.5761C86.9137 20.5761 87.4948 20.3522 87.9549 19.9042C88.4149 19.4442 88.6449 18.7905 88.6449 17.943V17.7615C88.6449 16.914 88.4149 16.2663 87.9549 15.8184C87.5069 15.3584 86.9258 15.1284 86.2116 15.1284C85.5094 15.1284 84.9283 15.3584 84.4683 15.8184C84.0083 16.2663 83.7782 16.914 83.7782 17.7615V17.943C83.7782 18.7905 84.0083 19.4442 84.4683 19.9042C84.9283 20.3522 85.5094 20.5761 86.2116 20.5761Z"/><path fill="#000" d="M96.7857 22.61C95.6115 22.61 94.649 22.3557 93.8984 21.8473C93.1479 21.3388 92.6939 20.6124 92.5365 19.6682L94.643 19.1234C94.7277 19.5471 94.8669 19.88 95.0606 20.1221C95.2664 20.3643 95.5146 20.5398 95.8052 20.6488C96.1078 20.7456 96.4347 20.794 96.7857 20.794C97.3184 20.794 97.7119 20.7032 97.9661 20.5216C98.2203 20.3279 98.3474 20.0919 98.3474 19.8134C98.3474 19.535 98.2264 19.3231 97.9843 19.1779C97.7421 19.0205 97.3547 18.8934 96.8221 18.7965L96.3136 18.7057C95.6841 18.5847 95.109 18.4212 94.5885 18.2154C94.0679 17.9975 93.6503 17.7009 93.3355 17.3256C93.0207 16.9503 92.8634 16.4661 92.8634 15.8729C92.8634 14.977 93.1902 14.2931 93.844 13.8209C94.4977 13.3367 95.3572 13.0945 96.4226 13.0945C97.4274 13.0945 98.2627 13.3185 98.9285 13.7664C99.5944 14.2144 100.03 14.8015 100.236 15.5279L98.1114 16.1816C98.0145 15.7216 97.8148 15.3947 97.5121 15.201C97.2216 15.0073 96.8584 14.9105 96.4226 14.9105C95.9867 14.9105 95.6538 14.9892 95.4238 15.1465C95.1938 15.2918 95.0788 15.4976 95.0788 15.7639C95.0788 16.0545 95.1998 16.2724 95.442 16.4177C95.6841 16.5508 96.011 16.6537 96.4226 16.7264L96.931 16.8172C97.609 16.9382 98.2203 17.1017 98.7651 17.3075C99.322 17.5012 99.7578 17.7857 100.073 18.161C100.399 18.5241 100.563 19.0205 100.563 19.65C100.563 20.5943 100.218 21.3267 99.5278 21.8473C98.8498 22.3557 97.9358 22.61 96.7857 22.61Z"/><path fill="#000" d="M106.672 22.61C105.776 22.61 104.983 22.4223 104.293 22.047C103.615 21.6596 103.082 21.1209 102.695 20.4309C102.32 19.7287 102.132 18.9055 102.132 17.9612V17.7433C102.132 16.799 102.32 15.9819 102.695 15.2918C103.07 14.5897 103.597 14.0509 104.275 13.6756C104.953 13.2882 105.74 13.0945 106.636 13.0945C107.519 13.0945 108.288 13.2943 108.942 13.6938C109.595 14.0812 110.104 14.626 110.467 15.3281C110.83 16.0182 111.012 16.8232 111.012 17.7433V18.5241H104.456C104.481 19.1416 104.711 19.644 105.146 20.0314C105.582 20.4187 106.115 20.6124 106.744 20.6124C107.386 20.6124 107.858 20.4732 108.161 20.1948C108.464 19.9163 108.694 19.6076 108.851 19.2687L110.721 20.2493C110.552 20.564 110.304 20.909 109.977 21.2843C109.662 21.6475 109.238 21.9623 108.706 22.2286C108.173 22.4828 107.495 22.61 106.672 22.61ZM104.475 16.8172H108.688C108.639 16.2966 108.427 15.879 108.052 15.5642C107.689 15.2494 107.211 15.0921 106.617 15.0921C106 15.0921 105.51 15.2494 105.146 15.5642C104.783 15.879 104.559 16.2966 104.475 16.8172Z"/><path fill="#000" d="M113.048 22.3557V13.3488H115.3V14.3657H115.627C115.76 14.0025 115.978 13.7362 116.281 13.5667C116.596 13.3972 116.959 13.3125 117.37 13.3125H118.46V15.3463H117.334C116.753 15.3463 116.275 15.5037 115.899 15.8184C115.524 16.1211 115.336 16.5932 115.336 17.2348V22.3557H113.048Z"/><path fill="#000" d="M122.137 22.3557L119.268 13.3488H121.701L123.789 20.6851H124.116L126.204 13.3488H128.638L125.769 22.3557H122.137Z"/><path fill="#000" d="M130.197 22.3557V13.3488H132.485V22.3557H130.197ZM131.341 12.2955C130.929 12.2955 130.578 12.1624 130.288 11.896C130.009 11.6297 129.87 11.2786 129.87 10.8428C129.87 10.407 130.009 10.0559 130.288 9.78958C130.578 9.52324 130.929 9.39008 131.341 9.39008C131.765 9.39008 132.116 9.52324 132.394 9.78958C132.672 10.0559 132.812 10.407 132.812 10.8428C132.812 11.2786 132.672 11.6297 132.394 11.896C132.116 12.1624 131.765 12.2955 131.341 12.2955Z"/><path fill="#000" d="M139.251 22.61C138.38 22.61 137.587 22.4284 136.873 22.0652C136.17 21.702 135.614 21.1754 135.202 20.4853C134.79 19.7953 134.584 18.96 134.584 17.9794V17.7251C134.584 16.7445 134.79 15.9092 135.202 15.2192C135.614 14.5291 136.17 14.0025 136.873 13.6393C137.587 13.2761 138.38 13.0945 139.251 13.0945C140.111 13.0945 140.849 13.2459 141.467 13.5485C142.084 13.8512 142.581 14.2688 142.956 14.8015C143.343 15.3221 143.597 15.9153 143.719 16.5811L141.503 17.0532C141.455 16.6901 141.346 16.3632 141.176 16.0727C141.007 15.7821 140.765 15.5521 140.45 15.3826C140.147 15.2131 139.766 15.1284 139.306 15.1284C138.846 15.1284 138.428 15.2313 138.053 15.4371C137.69 15.6308 137.399 15.9274 137.181 16.3269C136.975 16.7143 136.873 17.1925 136.873 17.7615V17.943C136.873 18.512 136.975 18.9963 137.181 19.3958C137.399 19.7832 137.69 20.0798 138.053 20.2856C138.428 20.4793 138.846 20.5761 139.306 20.5761C139.996 20.5761 140.516 20.4006 140.868 20.0495C141.231 19.6863 141.461 19.2142 141.558 18.6331L143.773 19.1597C143.616 19.8013 143.343 20.3885 142.956 20.9211C142.581 21.4417 142.084 21.8533 141.467 22.156C140.849 22.4586 140.111 22.61 139.251 22.61Z"/><path fill="#000" d="M149.764 22.61C148.869 22.61 148.076 22.4223 147.386 22.047C146.708 21.6596 146.175 21.1209 145.788 20.4309C145.412 19.7287 145.225 18.9055 145.225 17.9612V17.7433C145.225 16.799 145.412 15.9819 145.788 15.2918C146.163 14.5897 146.689 14.0509 147.367 13.6756C148.045 13.2882 148.832 13.0945 149.728 13.0945C150.612 13.0945 151.381 13.2943 152.034 13.6938C152.688 14.0812 153.197 14.626 153.56 15.3281C153.923 16.0182 154.104 16.8232 154.104 17.7433V18.5241H147.549C147.573 19.1416 147.803 19.644 148.239 20.0314C148.675 20.4187 149.208 20.6124 149.837 20.6124C150.479 20.6124 150.951 20.4732 151.253 20.1948C151.556 19.9163 151.786 19.6076 151.944 19.2687L153.814 20.2493C153.644 20.564 153.396 20.909 153.069 21.2843C152.755 21.6475 152.331 21.9623 151.798 22.2286C151.266 22.4828 150.588 22.61 149.764 22.61ZM147.567 16.8172H151.78C151.732 16.2966 151.52 15.879 151.145 15.5642C150.781 15.2494 150.303 15.0921 149.71 15.0921C149.093 15.0921 148.602 15.2494 148.239 15.5642C147.876 15.879 147.652 16.2966 147.567 16.8172Z"/><path stroke="#000" stroke-width=".2" d="M48 22.3557V9.6443H52.558L55.0821 20.7214H55.4089V9.6443H57.7696V22.3557H53.2117L50.6876 11.2786H50.3607V22.3557H48Z" mask="url(#path-2-outside-1_88_185)"/><path stroke="#000" stroke-width=".2" d="M63.0344 22.61C62.3928 22.61 61.8177 22.501 61.3093 22.2831C60.8008 22.0531 60.3952 21.7262 60.0926 21.3025C59.802 20.8667 59.6568 20.3401 59.6568 19.7226C59.6568 19.1052 59.802 18.5907 60.0926 18.1791C60.3952 17.7554 60.8068 17.4406 61.3274 17.2348C61.8601 17.0169 62.4654 16.908 63.1433 16.908H65.613V16.3995C65.613 15.9758 65.4798 15.6308 65.2135 15.3644C64.9471 15.086 64.5234 14.9468 63.9423 14.9468C63.3733 14.9468 62.9496 15.0799 62.6712 15.3463C62.3927 15.6005 62.2112 15.9334 62.1264 16.345L60.02 15.6368C60.1652 15.1768 60.3952 14.7591 60.71 14.3838C61.0369 13.9965 61.4666 13.6877 61.9993 13.4577C62.5441 13.2156 63.2039 13.0945 63.9787 13.0945C65.1651 13.0945 66.1033 13.3911 66.7933 13.9843C67.4834 14.5775 67.8284 15.4371 67.8284 16.5629V19.9224C67.8284 20.2856 67.9979 20.4672 68.3369 20.4672H69.0632V22.3557H67.5378C67.0899 22.3557 66.7207 22.2468 66.4301 22.0289C66.1396 21.8109 65.9943 21.5204 65.9943 21.1572V21.1391H65.6493C65.6009 21.2843 65.4919 21.478 65.3224 21.7202C65.1529 21.9502 64.8866 22.156 64.5234 22.3376C64.1602 22.5192 63.6639 22.61 63.0344 22.61ZM63.4339 20.7577C64.0755 20.7577 64.5961 20.5822 64.9956 20.2311C65.4072 19.8679 65.613 19.3897 65.613 18.7965V18.6149H63.3068C62.883 18.6149 62.5501 18.7057 62.308 18.8873C62.0659 19.0689 61.9448 19.3231 61.9448 19.65C61.9448 19.9769 62.0719 20.2432 62.3262 20.449C62.5804 20.6548 62.9496 20.7577 63.4339 20.7577Z" mask="url(#path-2-outside-1_88_185)"/><path stroke="#000" stroke-width=".2" d="M70.7361 22.3557V13.3488H72.9879V14.5291H73.3147C73.46 14.2144 73.7324 13.9178 74.1319 13.6393C74.5314 13.3488 75.1367 13.2035 75.9478 13.2035C76.65 13.2035 77.2613 13.3669 77.7819 13.6938C78.3146 14.0086 78.7262 14.4504 79.0167 15.0194C79.3073 15.5763 79.4525 16.23 79.4525 16.9806V22.3557H77.1645V17.1622C77.1645 16.4843 76.995 15.9758 76.656 15.6368C76.3292 15.2979 75.857 15.1284 75.2396 15.1284C74.5375 15.1284 73.9927 15.3644 73.6053 15.8366C73.2179 16.2966 73.0242 16.9443 73.0242 17.7796V22.3557H70.7361Z" mask="url(#path-2-outside-1_88_185)"/><path stroke="#000" stroke-width=".2" d="M86.2116 22.61C85.3157 22.61 84.5107 22.4284 83.7964 22.0652C83.0821 21.702 82.5192 21.1754 82.1076 20.4853C81.696 19.7953 81.4902 18.966 81.4902 17.9975V17.707C81.4902 16.7385 81.696 15.9092 82.1076 15.2192C82.5192 14.5291 83.0821 14.0025 83.7964 13.6393C84.5107 13.2761 85.3157 13.0945 86.2116 13.0945C87.1074 13.0945 87.9125 13.2761 88.6267 13.6393C89.341 14.0025 89.9039 14.5291 90.3155 15.2192C90.7272 15.9092 90.933 16.7385 90.933 17.707V17.9975C90.933 18.966 90.7272 19.7953 90.3155 20.4853C89.9039 21.1754 89.341 21.702 88.6267 22.0652C87.9125 22.4284 87.1074 22.61 86.2116 22.61ZM86.2116 20.5761C86.9137 20.5761 87.4948 20.3522 87.9549 19.9042C88.4149 19.4442 88.6449 18.7905 88.6449 17.943V17.7615C88.6449 16.914 88.4149 16.2663 87.9549 15.8184C87.5069 15.3584 86.9258 15.1284 86.2116 15.1284C85.5094 15.1284 84.9283 15.3584 84.4683 15.8184C84.0083 16.2663 83.7782 16.914 83.7782 17.7615V17.943C83.7782 18.7905 84.0083 19.4442 84.4683 19.9042C84.9283 20.3522 85.5094 20.5761 86.2116 20.5761Z" mask="url(#path-2-outside-1_88_185)"/><path stroke="#000" stroke-width=".2" d="M96.7857 22.61C95.6115 22.61 94.649 22.3557 93.8984 21.8473C93.1479 21.3388 92.6939 20.6124 92.5365 19.6682L94.643 19.1234C94.7277 19.5471 94.8669 19.88 95.0606 20.1221C95.2664 20.3643 95.5146 20.5398 95.8052 20.6488C96.1078 20.7456 96.4347 20.794 96.7857 20.794C97.3184 20.794 97.7119 20.7032 97.9661 20.5216C98.2203 20.3279 98.3474 20.0919 98.3474 19.8134C98.3474 19.535 98.2264 19.3231 97.9843 19.1779C97.7421 19.0205 97.3547 18.8934 96.8221 18.7965L96.3136 18.7057C95.6841 18.5847 95.109 18.4212 94.5885 18.2154C94.0679 17.9975 93.6503 17.7009 93.3355 17.3256C93.0207 16.9503 92.8634 16.4661 92.8634 15.8729C92.8634 14.977 93.1902 14.2931 93.844 13.8209C94.4977 13.3367 95.3572 13.0945 96.4226 13.0945C97.4274 13.0945 98.2627 13.3185 98.9285 13.7664C99.5944 14.2144 100.03 14.8015 100.236 15.5279L98.1114 16.1816C98.0145 15.7216 97.8148 15.3947 97.5121 15.201C97.2216 15.0073 96.8584 14.9105 96.4226 14.9105C95.9867 14.9105 95.6538 14.9892 95.4238 15.1465C95.1938 15.2918 95.0788 15.4976 95.0788 15.7639C95.0788 16.0545 95.1998 16.2724 95.442 16.4177C95.6841 16.5508 96.011 16.6537 96.4226 16.7264L96.931 16.8172C97.609 16.9382 98.2203 17.1017 98.7651 17.3075C99.322 17.5012 99.7578 17.7857 100.073 18.161C100.399 18.5241 100.563 19.0205 100.563 19.65C100.563 20.5943 100.218 21.3267 99.5278 21.8473C98.8498 22.3557 97.9358 22.61 96.7857 22.61Z" mask="url(#path-2-outside-1_88_185)"/><path stroke="#000" stroke-width=".2" d="M106.672 22.61C105.776 22.61 104.983 22.4223 104.293 22.047C103.615 21.6596 103.082 21.1209 102.695 20.4309C102.32 19.7287 102.132 18.9055 102.132 17.9612V17.7433C102.132 16.799 102.32 15.9819 102.695 15.2918C103.07 14.5897 103.597 14.0509 104.275 13.6756C104.953 13.2882 105.74 13.0945 106.636 13.0945C107.519 13.0945 108.288 13.2943 108.942 13.6938C109.595 14.0812 110.104 14.626 110.467 15.3281C110.83 16.0182 111.012 16.8232 111.012 17.7433V18.5241H104.456C104.481 19.1416 104.711 19.644 105.146 20.0314C105.582 20.4187 106.115 20.6124 106.744 20.6124C107.386 20.6124 107.858 20.4732 108.161 20.1948C108.464 19.9163 108.694 19.6076 108.851 19.2687L110.721 20.2493C110.552 20.564 110.304 20.909 109.977 21.2843C109.662 21.6475 109.238 21.9623 108.706 22.2286C108.173 22.4828 107.495 22.61 106.672 22.61ZM104.475 16.8172H108.688C108.639 16.2966 108.427 15.879 108.052 15.5642C107.689 15.2494 107.211 15.0921 106.617 15.0921C106 15.0921 105.51 15.2494 105.146 15.5642C104.783 15.879 104.559 16.2966 104.475 16.8172Z" mask="url(#path-2-outside-1_88_185)"/><path stroke="#000" stroke-width=".2" d="M113.048 22.3557V13.3488H115.3V14.3657H115.627C115.76 14.0025 115.978 13.7362 116.281 13.5667C116.596 13.3972 116.959 13.3125 117.37 13.3125H118.46V15.3463H117.334C116.753 15.3463 116.275 15.5037 115.899 15.8184C115.524 16.1211 115.336 16.5932 115.336 17.2348V22.3557H113.048Z" mask="url(#path-2-outside-1_88_185)"/><path stroke="#000" stroke-width=".2" d="M122.137 22.3557L119.268 13.3488H121.701L123.789 20.6851H124.116L126.204 13.3488H128.638L125.769 22.3557H122.137Z" mask="url(#path-2-outside-1_88_185)"/><path stroke="#000" stroke-width=".2" d="M130.197 22.3557V13.3488H132.485V22.3557H130.197ZM131.341 12.2955C130.929 12.2955 130.578 12.1624 130.288 11.896C130.009 11.6297 129.87 11.2786 129.87 10.8428C129.87 10.407 130.009 10.0559 130.288 9.78958C130.578 9.52324 130.929 9.39008 131.341 9.39008C131.765 9.39008 132.116 9.52324 132.394 9.78958C132.672 10.0559 132.812 10.407 132.812 10.8428C132.812 11.2786 132.672 11.6297 132.394 11.896C132.116 12.1624 131.765 12.2955 131.341 12.2955Z" mask="url(#path-2-outside-1_88_185)"/><path stroke="#000" stroke-width=".2" d="M139.251 22.61C138.38 22.61 137.587 22.4284 136.873 22.0652C136.17 21.702 135.614 21.1754 135.202 20.4853C134.79 19.7953 134.584 18.96 134.584 17.9794V17.7251C134.584 16.7445 134.79 15.9092 135.202 15.2192C135.614 14.5291 136.17 14.0025 136.873 13.6393C137.587 13.2761 138.38 13.0945 139.251 13.0945C140.111 13.0945 140.849 13.2459 141.467 13.5485C142.084 13.8512 142.581 14.2688 142.956 14.8015C143.343 15.3221 143.597 15.9153 143.719 16.5811L141.503 17.0532C141.455 16.6901 141.346 16.3632 141.176 16.0727C141.007 15.7821 140.765 15.5521 140.45 15.3826C140.147 15.2131 139.766 15.1284 139.306 15.1284C138.846 15.1284 138.428 15.2313 138.053 15.4371C137.69 15.6308 137.399 15.9274 137.181 16.3269C136.975 16.7143 136.873 17.1925 136.873 17.7615V17.943C136.873 18.512 136.975 18.9963 137.181 19.3958C137.399 19.7832 137.69 20.0798 138.053 20.2856C138.428 20.4793 138.846 20.5761 139.306 20.5761C139.996 20.5761 140.516 20.4006 140.868 20.0495C141.231 19.6863 141.461 19.2142 141.558 18.6331L143.773 19.1597C143.616 19.8013 143.343 20.3885 142.956 20.9211C142.581 21.4417 142.084 21.8533 141.467 22.156C140.849 22.4586 140.111 22.61 139.251 22.61Z" mask="url(#path-2-outside-1_88_185)"/><path stroke="#000" stroke-width=".2" d="M149.764 22.61C148.869 22.61 148.076 22.4223 147.386 22.047C146.708 21.6596 146.175 21.1209 145.788 20.4309C145.412 19.7287 145.225 18.9055 145.225 17.9612V17.7433C145.225 16.799 145.412 15.9819 145.788 15.2918C146.163 14.5897 146.689 14.0509 147.367 13.6756C148.045 13.2882 148.832 13.0945 149.728 13.0945C150.612 13.0945 151.381 13.2943 152.034 13.6938C152.688 14.0812 153.197 14.626 153.56 15.3281C153.923 16.0182 154.104 16.8232 154.104 17.7433V18.5241H147.549C147.573 19.1416 147.803 19.644 148.239 20.0314C148.675 20.4187 149.208 20.6124 149.837 20.6124C150.479 20.6124 150.951 20.4732 151.253 20.1948C151.556 19.9163 151.786 19.6076 151.944 19.2687L153.814 20.2493C153.644 20.564 153.396 20.909 153.069 21.2843C152.755 21.6475 152.331 21.9623 151.798 22.2286C151.266 22.4828 150.588 22.61 149.764 22.61ZM147.567 16.8172H151.78C151.732 16.2966 151.52 15.879 151.145 15.5642C150.781 15.2494 150.303 15.0921 149.71 15.0921C149.093 15.0921 148.602 15.2494 148.239 15.5642C147.876 15.879 147.652 16.2966 147.567 16.8172Z" mask="url(#path-2-outside-1_88_185)"/></svg>