<svg xmlns="http://www.w3.org/2000/svg" width="102" height="105" fill="none" viewBox="0 0 102 105"><path fill="#39C068" d="M23.2492 44.1881C23.7542 43.6815 24.5731 43.6815 25.0781 44.1881L32.9485 52.0827C33.4535 52.5893 33.4535 53.4107 32.9485 53.9173L25.0781 61.8119C24.5731 62.3185 23.7542 62.3185 23.2492 61.8119L15.3788 53.9173C14.8737 53.4107 14.8737 52.5893 15.3788 52.0827L23.2492 44.1881Z"/><path fill="#39C068" fill-rule="evenodd" d="M52.2792 44.355C51.4845 43.9086 50.5155 43.9086 49.7207 44.355L43.794 47.6843C42.9671 48.1487 42.455 49.0251 42.455 49.9757V56.0243C42.455 56.9749 42.9671 57.8513 43.794 58.3157L49.7207 61.645C50.5155 62.0914 51.4845 62.0914 52.2793 61.645L58.206 58.3157C59.0329 57.8513 59.545 56.9749 59.545 56.0243V49.9757C59.545 49.0251 59.0329 48.1487 58.206 47.6843L52.2792 44.355ZM67.3636 45.3474C67.3636 44.3968 66.8515 43.5205 66.0247 43.056L52.2792 35.3348C51.4845 34.8884 50.5155 34.8884 49.7207 35.3348L35.9753 43.056C35.1485 43.5205 34.6364 44.3968 34.6364 45.3474V60.6526C34.6364 61.6032 35.1485 62.4795 35.9753 62.944L49.7207 70.6652C50.5155 71.1116 51.4845 71.1116 52.2793 70.6652L66.0247 62.944C66.8515 62.4795 67.3636 61.6031 67.3636 60.6526V45.3474Z" clip-rule="evenodd"/><path fill="#39C068" d="M76.9219 44.1881C77.4269 43.6815 78.2458 43.6815 78.7508 44.1881L86.6212 52.0827C87.1263 52.5893 87.1263 53.4107 86.6212 53.9173L78.7508 61.8119C78.2458 62.3185 77.4269 62.3185 76.9219 61.8119L69.0515 53.9173C68.5465 53.4107 68.5465 52.5893 69.0515 52.0827L76.9219 44.1881Z"/></svg>